<mxfile host="app.diagrams.net" modified="2022-04-26T11:41:48.845Z" agent="5.0 (Windows NT 10.0; Win64; x64) AppleWebKit/537.36 (KHTML, like Gecko) Chrome/100.0.4896.127 Safari/537.36 Edg/100.0.1185.50" etag="U80_wOepFqh_V13wgcmN" version="17.4.6" type="github">
  <diagram id="mtZ-vp9xhCHSxRK4fMY_" name="Page-1">
    <mxGraphModel dx="1038" dy="579" grid="1" gridSize="10" guides="1" tooltips="1" connect="1" arrows="1" fold="1" page="1" pageScale="1" pageWidth="850" pageHeight="1100" math="0" shadow="0">
      <root>
        <mxCell id="0" />
        <mxCell id="1" parent="0" />
        <mxCell id="Nk-TqVjTdAjmvFMLApRT-3" value="" style="edgeStyle=orthogonalEdgeStyle;rounded=0;orthogonalLoop=1;jettySize=auto;html=1;" edge="1" parent="1" source="Nk-TqVjTdAjmvFMLApRT-1" target="Nk-TqVjTdAjmvFMLApRT-2">
          <mxGeometry relative="1" as="geometry" />
        </mxCell>
        <mxCell id="Nk-TqVjTdAjmvFMLApRT-1" value="start" style="rounded=1;whiteSpace=wrap;html=1;" vertex="1" parent="1">
          <mxGeometry x="350" y="20" width="100" height="30" as="geometry" />
        </mxCell>
        <mxCell id="Nk-TqVjTdAjmvFMLApRT-5" value="" style="edgeStyle=orthogonalEdgeStyle;rounded=0;orthogonalLoop=1;jettySize=auto;html=1;" edge="1" parent="1" source="Nk-TqVjTdAjmvFMLApRT-2" target="Nk-TqVjTdAjmvFMLApRT-4">
          <mxGeometry relative="1" as="geometry" />
        </mxCell>
        <mxCell id="Nk-TqVjTdAjmvFMLApRT-2" value="get the tile object" style="whiteSpace=wrap;html=1;rounded=1;" vertex="1" parent="1">
          <mxGeometry x="340" y="100" width="120" height="60" as="geometry" />
        </mxCell>
        <mxCell id="Nk-TqVjTdAjmvFMLApRT-7" value="" style="edgeStyle=orthogonalEdgeStyle;rounded=0;orthogonalLoop=1;jettySize=auto;html=1;" edge="1" parent="1" source="Nk-TqVjTdAjmvFMLApRT-4" target="Nk-TqVjTdAjmvFMLApRT-6">
          <mxGeometry relative="1" as="geometry" />
        </mxCell>
        <mxCell id="Nk-TqVjTdAjmvFMLApRT-4" value="FOR boundary tile&amp;nbsp;" style="rhombus;whiteSpace=wrap;html=1;rounded=1;" vertex="1" parent="1">
          <mxGeometry x="360" y="190" width="80" height="80" as="geometry" />
        </mxCell>
        <mxCell id="Nk-TqVjTdAjmvFMLApRT-8" value="next tile" style="edgeStyle=orthogonalEdgeStyle;rounded=0;orthogonalLoop=1;jettySize=auto;html=1;exitX=0.5;exitY=1;exitDx=0;exitDy=0;" edge="1" parent="1" source="Nk-TqVjTdAjmvFMLApRT-6">
          <mxGeometry relative="1" as="geometry">
            <mxPoint x="400" y="180" as="targetPoint" />
            <Array as="points">
              <mxPoint x="400" y="370" />
              <mxPoint x="270" y="370" />
              <mxPoint x="270" y="180" />
            </Array>
          </mxGeometry>
        </mxCell>
        <mxCell id="Nk-TqVjTdAjmvFMLApRT-12" value="" style="edgeStyle=orthogonalEdgeStyle;rounded=0;orthogonalLoop=1;jettySize=auto;html=1;" edge="1" parent="1" source="Nk-TqVjTdAjmvFMLApRT-6" target="Nk-TqVjTdAjmvFMLApRT-11">
          <mxGeometry relative="1" as="geometry" />
        </mxCell>
        <mxCell id="Nk-TqVjTdAjmvFMLApRT-6" value="get the tile coordinatates and store the tile info" style="whiteSpace=wrap;html=1;rounded=1;" vertex="1" parent="1">
          <mxGeometry x="340" y="290" width="120" height="60" as="geometry" />
        </mxCell>
        <mxCell id="Nk-TqVjTdAjmvFMLApRT-14" value="" style="edgeStyle=orthogonalEdgeStyle;rounded=0;orthogonalLoop=1;jettySize=auto;html=1;" edge="1" parent="1" source="Nk-TqVjTdAjmvFMLApRT-11" target="Nk-TqVjTdAjmvFMLApRT-13">
          <mxGeometry relative="1" as="geometry" />
        </mxCell>
        <mxCell id="Nk-TqVjTdAjmvFMLApRT-11" value="construct view port object" style="whiteSpace=wrap;html=1;rounded=1;" vertex="1" parent="1">
          <mxGeometry x="340" y="400" width="120" height="60" as="geometry" />
        </mxCell>
        <mxCell id="Nk-TqVjTdAjmvFMLApRT-13" value="load the view port polygon" style="whiteSpace=wrap;html=1;rounded=1;" vertex="1" parent="1">
          <mxGeometry x="340" y="500" width="120" height="60" as="geometry" />
        </mxCell>
      </root>
    </mxGraphModel>
  </diagram>
</mxfile>
